<?xml version="1.0" standalone="no"?>
<!DOCTYPE svg PUBLIC "-//W3C//DTD SVG 20010904//EN"
 "http://www.w3.org/TR/2001/REC-SVG-20010904/DTD/svg10.dtd">
<svg version="1.0" xmlns="http://www.w3.org/2000/svg"
 width="626.000000pt" height="232.000000pt" viewBox="0 0 626.000000 232.000000"
 preserveAspectRatio="xMidYMid meet">

<g transform="translate(0.000000,232.000000) scale(0.100000,-0.100000)"
fill="#000000" stroke="none">
<path d="M835 1779 c-116 -57 -364 -157 -481 -193 -119 -38 -118 -36 -111
-213 15 -367 116 -677 304 -933 116 -157 363 -368 448 -382 14 -2 30 14 62 61
47 72 139 171 193 207 275 186 369 273 431 400 74 153 108 363 109 672 0 150
-16 178 -120 210 -286 87 -475 148 -588 191 -46 17 -98 31 -115 30 -18 0 -77
-23 -132 -50z m344 -83 c98 -36 252 -87 342 -116 89 -28 169 -56 177 -62 11
-10 13 -52 10 -227 -4 -204 -6 -221 -32 -301 -16 -47 -40 -107 -53 -135 -29
-57 -128 -163 -193 -208 -227 -155 -367 -279 -457 -405 -25 -34 -49 -62 -54
-62 -19 0 -256 249 -310 325 -170 241 -271 544 -296 890 -7 97 -5 99 122 145
139 50 289 113 405 168 58 28 117 51 132 51 15 1 108 -28 207 -63z"/>
<path d="M1205 1507 c-27 -20 -43 -22 -218 -27 -220 -6 -217 -4 -236 -113 -19
-111 -9 -180 19 -127 14 27 40 26 42 -2 3 -50 15 -78 34 -78 10 0 12 10 8 44
-6 39 -4 46 17 59 20 12 39 13 116 3 50 -6 95 -15 99 -19 5 -4 8 -22 9 -40 0
-36 18 -53 23 -22 5 30 24 65 36 65 7 0 10 -19 8 -50 -3 -43 -1 -50 15 -50 16
0 18 6 15 39 -3 25 3 53 13 73 10 18 23 53 29 78 l13 45 53 -3 c48 -3 52 -2
45 15 -4 10 -12 33 -17 52 -9 30 -7 37 12 51 20 15 21 18 5 23 -37 15 -110 7
-140 -16z"/>
<path d="M745 1200 c-4 -6 -3 -16 3 -22 6 -6 12 -6 17 2 4 6 3 16 -3 22 -6 6
-12 6 -17 -2z"/>
<path d="M410 1148 c0 -9 5 -20 10 -23 13 -8 13 5 0 25 -8 13 -10 13 -10 -2z"/>
<path d="M1220 1137 c0 -12 67 -37 150 -56 47 -11 116 -34 154 -51 65 -29 69
-29 83 -13 15 20 27 46 37 83 6 24 6 23 -9 -3 -12 -21 -20 -26 -29 -18 -11 9
-108 26 -171 30 -46 2 -172 20 -192 26 -13 4 -23 5 -23 2z"/>
<path d="M1618 1133 c7 -3 16 -2 19 1 4 3 -2 6 -13 5 -11 0 -14 -3 -6 -6z"/>
<path d="M1015 1023 c-174 -11 -424 -50 -503 -79 -36 -14 -42 -19 -36 -37 3
-12 9 -25 13 -29 3 -3 43 6 88 22 161 56 622 123 748 108 19 -2 35 -1 35 3 0
15 -187 22 -345 12z"/>
<path d="M1015 893 c-87 -22 -360 -109 -402 -128 -39 -17 -54 -20 -63 -11 -7
6 2 -17 19 -51 18 -36 38 -63 46 -63 9 0 51 25 94 55 80 56 198 119 245 131
25 6 37 24 15 24 -25 0 4 18 46 29 25 6 45 13 45 16 0 6 -16 5 -45 -2z"/>
<path d="M1150 776 c-172 -60 -336 -137 -420 -196 -14 -10 -35 -20 -47 -21
-17 -3 -20 -8 -13 -19 8 -13 12 -13 32 -1 95 60 289 156 437 217 122 51 127
60 11 20z"/>
<path d="M4777 1398 c-11 -43 -87 -543 -87 -569 0 -5 27 -9 59 -9 l60 0 10 53
c5 28 23 149 41 267 17 118 33 230 37 248 l5 32 -60 0 c-54 0 -60 -2 -65 -22z"/>
<path d="M4468 1393 c-104 -2 -188 -6 -188 -9 0 -3 -14 -99 -31 -212 -16 -114
-32 -220 -34 -237 -2 -16 -7 -49 -10 -72 l-6 -43 60 0 c69 0 64 -7 82 120 7
47 18 89 23 93 6 4 58 5 116 2 120 -7 137 -1 142 55 l3 35 -127 3 -127 3 6 52
c3 29 9 63 13 77 l6 25 141 0 c78 0 145 4 149 7 4 4 9 30 12 58 4 48 4 50 -19
48 -13 -2 -108 -4 -211 -5z"/>
<path d="M2101 1318 c-22 -134 -62 -402 -67 -450 l-5 -48 55 0 c30 0 57 4 60
9 3 5 11 44 17 87 7 44 17 83 23 87 6 4 38 7 71 6 92 -3 161 11 210 42 56 35
77 76 83 161 6 82 -17 126 -82 157 -37 19 -61 21 -198 21 l-155 0 -12 -72z
m310 -47 c44 -54 12 -141 -59 -161 -51 -14 -162 -13 -162 1 0 7 5 52 12 101
l12 90 89 -4 c79 -3 91 -6 108 -27z"/>
<path d="M3494 1333 c-19 -86 -20 -88 -45 -91 -35 -5 -49 -21 -49 -53 0 -24 4
-28 33 -31 25 -2 32 -7 30 -23 -30 -277 -30 -285 32 -311 42 -17 126 -18 147
-1 8 6 18 26 21 44 6 32 6 32 -40 35 -65 4 -69 15 -53 141 l13 106 56 3 56 3
0 40 0 40 -49 3 -48 3 6 60 7 59 -55 0 c-52 0 -56 -2 -62 -27z"/>
<path d="M3867 1237 c-52 -17 -103 -60 -129 -110 -33 -63 -32 -180 2 -230 41
-60 91 -82 185 -82 88 1 122 14 173 65 65 64 83 219 33 288 -46 65 -174 99
-264 69z m144 -106 c35 -36 39 -93 10 -157 -30 -66 -88 -92 -142 -64 -73 40
-59 193 23 233 48 24 76 21 109 -12z"/>
<path d="M5090 1240 c-102 -14 -168 -85 -184 -200 -17 -124 52 -212 178 -225
72 -8 121 3 177 41 104 70 120 271 28 348 -38 32 -120 47 -199 36z m120 -118
c57 -71 -6 -222 -92 -222 -84 0 -122 90 -79 186 22 48 32 55 81 64 47 8 67 2
90 -28z"/>
<path d="M2655 1228 c-46 -16 -55 -27 -55 -65 0 -34 1 -35 28 -28 108 27 141
29 162 10 11 -10 20 -28 20 -41 0 -25 -5 -26 -113 -38 -71 -8 -133 -39 -151
-75 -23 -43 -20 -103 5 -134 39 -51 158 -59 214 -15 l26 20 6 -21 c5 -19 12
-22 51 -19 55 4 56 6 74 184 14 144 7 179 -41 211 -29 19 -47 23 -115 22 -45
0 -94 -5 -111 -11z m147 -248 c-4 -39 -29 -68 -68 -79 -50 -14 -84 3 -84 40 0
39 51 65 124 64 27 0 31 -3 28 -25z"/>
<path d="M3078 1219 c-46 -24 -61 -50 -60 -107 2 -63 27 -86 130 -119 46 -14
87 -33 90 -41 17 -46 -97 -68 -179 -36 -47 19 -59 11 -59 -38 0 -38 41 -57
138 -65 66 -5 85 -2 125 15 57 25 87 70 87 129 0 63 -28 90 -124 116 -88 25
-114 48 -82 73 25 18 82 18 135 -1 41 -14 42 -14 51 11 6 14 10 32 10 40 0 44
-191 61 -262 23z"/>
<path d="M5378 1234 c-4 -3 0 -24 7 -47 8 -23 28 -112 45 -197 17 -85 35 -159
39 -163 5 -4 37 -7 72 -5 l63 3 41 125 c23 68 44 119 48 114 3 -6 15 -53 27
-105 11 -52 22 -104 25 -116 5 -21 11 -23 74 -23 l68 0 66 203 c37 111 67 206
67 210 0 4 -26 7 -57 5 l-58 -3 -17 -50 c-9 -27 -27 -87 -39 -132 -12 -46 -24
-83 -28 -83 -4 0 -20 60 -37 133 l-29 132 -54 0 -54 0 -24 -70 c-14 -38 -33
-97 -42 -129 -10 -33 -22 -61 -27 -63 -6 -2 -20 53 -32 123 -12 69 -25 130
-28 135 -6 10 -107 13 -116 3z"/>
<path d="M4515 598 c-10 -55 -1 -191 13 -196 9 -3 12 24 12 112 0 112 -12 153
-25 84z"/>
<path d="M3430 605 c0 -8 5 -15 10 -15 6 0 10 7 10 15 0 8 -4 15 -10 15 -5 0
-10 -7 -10 -15z"/>
<path d="M3849 616 c-8 -9 3 -216 12 -216 5 0 9 48 9 110 0 96 -5 122 -21 106z"/>
<path d="M4630 605 c0 -8 5 -15 10 -15 6 0 10 7 10 15 0 8 -4 15 -10 15 -5 0
-10 -7 -10 -15z"/>
<path d="M2520 504 c0 -67 4 -103 10 -99 6 3 10 42 10 86 0 43 3 79 8 79 4 0
20 -29 37 -65 16 -36 35 -65 42 -65 7 0 25 25 40 55 15 30 31 55 35 55 4 0 8
-31 8 -69 0 -39 5 -73 10 -76 6 -4 10 32 10 99 0 129 -12 137 -61 41 -19 -36
-36 -65 -39 -65 -3 0 -20 29 -38 65 -23 48 -37 65 -52 65 -19 0 -20 -7 -20
-106z"/>
<path d="M4180 585 c0 -16 -6 -25 -15 -25 -8 0 -15 -4 -15 -9 0 -5 7 -11 15
-15 11 -4 15 -21 15 -61 0 -49 3 -57 24 -67 27 -12 56 -5 56 12 0 6 -8 10 -17
8 -32 -5 -43 12 -43 63 0 46 2 49 25 49 14 0 25 5 25 10 0 6 -11 10 -25 10
-20 0 -25 5 -25 25 0 14 -4 25 -10 25 -5 0 -10 -11 -10 -25z"/>
<path d="M5360 591 c0 -5 -7 -17 -17 -26 -10 -11 -12 -19 -6 -23 6 -4 12 -33
15 -65 3 -35 11 -63 19 -68 19 -13 51 -7 57 10 3 9 0 12 -10 8 -25 -9 -38 14
-38 65 0 45 2 48 25 48 14 0 25 5 25 10 0 6 -11 10 -25 10 -18 0 -25 5 -25 20
0 11 -4 20 -10 20 -5 0 -10 -4 -10 -9z"/>
<path d="M2820 546 c0 -11 10 -13 39 -9 30 4 39 2 45 -12 9 -25 -1 -35 -39
-35 -37 0 -68 -24 -63 -49 5 -24 49 -41 91 -34 l37 6 0 61 c0 35 -5 67 -12 74
-17 17 -98 16 -98 -2z m90 -86 c0 -23 -40 -43 -65 -34 -35 14 -4 53 43 54 16
0 22 -6 22 -20z"/>
<path d="M3010 483 c0 -58 3 -73 15 -73 11 0 15 13 15 53 0 58 12 77 46 77 30
0 37 -14 38 -74 1 -74 20 -74 24 0 4 80 -9 95 -84 91 l-54 -2 0 -72z"/>
<path d="M3244 552 c-35 -23 -42 -105 -10 -131 22 -18 81 -22 102 -7 25 19 14
29 -18 17 -30 -11 -71 6 -76 32 -3 15 5 17 57 17 54 0 61 2 61 20 0 44 -77 79
-116 52z m74 -24 c25 -25 13 -38 -33 -38 -30 0 -45 4 -45 13 0 19 21 37 45 37
12 0 26 -5 33 -12z"/>
<path d="M3423 544 c-3 -8 -3 -49 0 -90 5 -66 3 -76 -14 -87 -10 -6 -19 -16
-19 -20 0 -11 43 3 52 17 12 17 10 196 -2 196 -6 0 -13 -7 -17 -16z"/>
<path d="M3540 540 c-31 -31 -27 -93 7 -120 53 -41 123 -6 123 62 0 49 -28 78
-75 78 -22 0 -43 -8 -55 -20z m99 -32 c13 -22 13 -30 2 -51 -18 -34 -45 -39
-76 -15 -29 23 -32 44 -9 76 22 31 63 26 83 -10z"/>
<path d="M3960 477 c0 -50 4 -76 10 -72 6 3 10 28 10 54 0 50 20 81 53 81 24
0 32 -19 32 -79 0 -34 5 -56 13 -58 17 -7 17 131 -1 145 -7 6 -37 10 -65 9
l-52 -2 0 -78z"/>
<path d="M4326 541 c-25 -27 -25 -87 0 -111 27 -27 74 -35 99 -16 27 19 14 30
-18 15 -22 -10 -31 -9 -52 5 -39 26 -26 41 38 44 49 3 57 6 57 22 0 53 -88 81
-124 41z m93 -20 c14 -24 5 -31 -40 -31 -42 0 -57 13 -39 35 18 21 67 19 79
-4z"/>
<path d="M4630 479 c0 -51 4 -78 10 -74 6 3 10 40 10 81 0 43 -4 74 -10 74 -6
0 -10 -34 -10 -81z"/>
<path d="M4748 549 c-15 -8 -17 -22 -14 -80 2 -38 -1 -72 -5 -75 -19 -12 -7
-33 25 -44 56 -18 116 2 116 39 0 28 -21 41 -66 41 -44 0 -64 13 -42 26 7 5
25 7 40 5 19 -2 31 5 43 23 9 14 15 31 13 38 -3 7 2 18 10 24 19 14 -96 17
-120 3z m77 -19 c10 -17 -5 -50 -24 -50 -9 0 -26 6 -36 14 -16 12 -17 16 -6
30 15 18 56 22 66 6z m20 -130 c11 -18 -16 -40 -50 -40 -38 0 -61 20 -43 38
15 15 84 16 93 2z"/>
<path d="M4951 543 c-25 -20 -31 -76 -13 -110 7 -12 25 -24 40 -28 31 -6 82 9
82 25 0 13 -17 13 -25 0 -10 -17 -51 -11 -69 9 -21 23 -13 43 17 40 12 0 37
-1 56 0 31 1 33 3 27 29 -13 51 -72 69 -115 35z m88 -22 c14 -25 5 -31 -46
-31 -46 0 -53 9 -27 34 21 22 61 20 73 -3z"/>
<path d="M5140 483 c0 -86 18 -99 22 -16 3 53 5 58 31 68 38 13 61 -15 52 -63
-7 -36 1 -72 16 -72 5 0 9 29 9 64 0 82 -13 97 -81 94 l-49 -2 0 -73z"/>
<path d="M5511 543 c-34 -28 -32 -90 4 -120 23 -20 34 -23 64 -18 43 8 53 14
46 25 -3 5 -19 4 -35 -2 -24 -8 -36 -7 -55 6 -45 29 -32 46 35 46 66 0 76 13
44 58 -19 27 -72 30 -103 5z m88 -22 c14 -24 5 -31 -40 -31 -44 0 -56 12 -33
34 21 22 61 20 73 -3z"/>
</g>
</svg>
